<svg width="53" height="56" viewBox="0 0 53 56" fill="none" xmlns="http://www.w3.org/2000/svg">
<g clip-path="url(#clip0_269_13664)">
<path d="M26.5644 -2.2489e-05C12.5295 0.0438532 -5.3331 37.3821 1.50515 44.4753C8.34339 51.5685 45.1581 51.5685 51.6093 44.4753C58.0605 37.3821 40.5849 -0.0438982 26.5644 -2.2489e-05Z" fill="url(#paint0_linear_269_13664)"/>
<path d="M26.4355 56C40.4561 55.9561 58.333 18.6179 51.4948 11.5247C44.6565 4.43142 7.8418 4.44605 1.39062 11.5393C-5.06056 18.6325 12.415 56.0438 26.4355 56Z" fill="url(#paint1_linear_269_13664)"/>
<path d="M52.3836 21.7185L46.7925 16.0146H41.861L38.7931 20.9433L35.4241 16.0146H6.35083V32.1609L29.2597 55.532C39.0511 52.3583 49.7314 34.0329 52.3836 21.7185ZM15.6405 26.8227C15.3251 27.1737 14.9524 27.4515 14.5223 27.6563C14.0779 27.8464 13.5905 27.9488 13.0457 27.9488H10.8236V19.8172H13.0314C13.5761 19.8172 14.0636 19.9196 14.508 20.1097C14.9381 20.2998 15.3108 20.5777 15.6262 20.9433C15.9416 21.2943 16.1996 21.7331 16.3717 22.2303C16.5437 22.7276 16.644 23.2834 16.644 23.883C16.644 24.4826 16.558 25.0384 16.3717 25.5356C16.1996 26.0329 15.9559 26.457 15.6405 26.8227Z" fill="#6C2352"/>
<path d="M41.8466 16.1024L38.7214 21.1188L35.2951 16.1024H33.2164H30.3492H13.0744H8.91696H6.33649V32H13.06C14.2356 32 15.2965 31.8099 16.2713 31.415C17.2318 31.0201 18.0776 30.479 18.7944 29.7624C19.5112 29.0603 20.056 28.2121 20.4431 27.2468C20.8301 26.2669 21.0165 25.1993 21.0165 24.0585C21.0165 22.8885 20.8301 21.8209 20.4431 20.8556C20.3284 20.5485 20.185 20.2706 20.0273 19.9927H23.9124V32.0146H28.3278V19.9927H33.03L36.485 24.9653V32H40.9435V24.9214L46.6492 16.1024H41.8466ZM14.4363 20.2852C14.8664 20.4753 15.2391 20.7532 15.5545 21.1188C15.8699 21.4698 16.1279 21.9086 16.3 22.4059C16.472 22.9031 16.5724 23.4589 16.5724 24.0585C16.5724 24.6581 16.4863 25.2139 16.3 25.7112C16.1279 26.2084 15.8699 26.6326 15.5688 26.9982C15.2534 27.3492 14.8807 27.6271 14.4506 27.8318C14.0062 28.0219 13.5188 28.1243 12.974 28.1243H10.7663V19.9927H12.974C13.5188 19.9781 14.0062 20.0804 14.4363 20.2852Z" fill="white"/>
<path d="M23.7833 41.6673C23.7833 41.6673 32.0122 44.6362 34.9224 37.1188L23.7833 41.6673Z" fill="white"/>
</g>
<defs>
<linearGradient id="paint0_linear_269_13664" x1="26.4999" y1="49.7915" x2="26.4999" y2="-2.54215e-05" gradientUnits="userSpaceOnUse">
<stop stop-color="#951B81"/>
<stop offset="1" stop-color="#951B81"/>
</linearGradient>
<linearGradient id="paint1_linear_269_13664" x1="26.5001" y1="6.21349" x2="26.5001" y2="56.005" gradientUnits="userSpaceOnUse">
<stop stop-color="#E6007E"/>
<stop offset="0.1399" stop-color="#E1007E"/>
<stop offset="0.3516" stop-color="#D5007F"/>
<stop offset="0.6088" stop-color="#C0077F"/>
<stop offset="0.8991" stop-color="#A21881"/>
<stop offset="1" stop-color="#951B81"/>
</linearGradient>
<clipPath id="clip0_269_13664">
<rect width="53" height="56" fill="white"/>
</clipPath>
</defs>
</svg>
